<svg width="64" height="64" viewBox="0 0 64 64" fill="none" xmlns="http://www.w3.org/2000/svg">
<g clip-path="url(#clip0_4372_12219)">
<path d="M48.0521 58.182L59.9276 58.1802C62.1769 58.1802 63.9998 56.3568 63.9998 54.1075V42.6009C63.9998 41.4123 63.4802 40.2824 62.5778 39.5085L24.4164 6.79872C23.678 6.16629 22.7378 5.81836 21.7656 5.81836H9.89011C7.6408 5.81836 5.81738 7.64178 5.81738 9.89109V21.3994C5.81738 22.5881 6.33695 23.718 7.23935 24.4918L45.4002 57.2011C46.1385 57.8341 47.0788 58.1814 48.0516 58.1814L48.0521 58.182Z" fill="#00D886"/>
<path d="M49.4806 58.1818H59.9271C62.1764 58.1818 63.9999 56.3584 63.9999 54.1091V41.0164C63.9999 40.8239 63.9859 40.6313 63.9591 40.4404L58.6815 3.49673C58.3952 1.49062 56.6765 0 54.65 0H38.977C36.7271 0 34.9037 1.824 34.9043 4.07389L34.909 22.6124C34.909 23.0499 34.9794 23.4845 35.1178 23.8993L45.6173 55.3972C46.1718 57.0601 47.7282 58.1818 49.4812 58.1818H49.4806Z" fill="url(#paint0_linear_4372_12219)"/>
<path d="M4.07273 64H38.041C39.6701 64 41.1427 63.0289 41.7844 61.5319L57.8525 24.0413C58.0695 23.5345 58.1818 22.9882 58.1818 22.4367V4.07273C58.1818 1.82342 56.3584 0 54.1091 0H36.1431C35.3385 0 34.5519 0.238545 33.8822 0.685382L1.81353 22.0881C0.681309 22.8439 0.00174545 24.1146 0.00174545 25.4755L0 59.9273C0 62.1766 1.82342 64 4.07273 64Z" fill="url(#paint1_linear_4372_12219)"/>
<path d="M52 12H12V52H52V12Z" fill="black"/>
<path d="M33 44H17V47H33V44Z" fill="white"/>
<path d="M23.7017 32.64C22.2545 32.64 20.9439 32.301 19.7698 31.6245C18.5964 30.94 17.6746 30.0043 17.0045 28.8164C16.335 27.6215 16 26.2889 16 24.8197C16 23.3506 16.335 22.022 17.0045 20.8341C17.674 19.6392 18.5958 18.7024 19.7698 18.0259C20.9433 17.3414 22.2539 17 23.7017 17C24.8752 17 25.9555 17.2095 26.9421 17.6267C27.9356 18.0439 28.7711 18.6312 29.4482 19.3875C30.1321 20.1437 30.6112 21.0146 30.8849 22.0012H27.7308C27.5005 21.5261 27.1868 21.1153 26.791 20.7698C26.4022 20.4174 25.9451 20.1472 25.4191 19.9597C24.8937 19.7653 24.3284 19.6681 23.7231 19.6681C22.8303 19.6681 22.0236 19.8909 21.3038 20.3376C20.584 20.7843 20.0186 21.4 19.6078 22.1846C19.2045 22.9623 19.0031 23.8413 19.0031 24.8203C19.0031 25.7994 19.2045 26.6824 19.6078 27.4664C20.0181 28.2441 20.5834 28.8557 21.3038 29.3024C22.0242 29.7492 22.8303 29.9719 23.7231 29.9719C24.5511 29.9719 25.2999 29.8169 25.97 29.5073C26.647 29.1983 27.1834 28.7689 27.5791 28.2221C27.9749 27.6753 28.1879 27.0596 28.2162 26.3751L28.2272 26.6882H24.6738V24.3661H31.0788V25.554C31.0788 26.8866 30.7547 28.0925 30.1066 29.1723C29.4655 30.2456 28.5837 31.091 27.4605 31.7107C26.3443 32.3305 25.0916 32.6395 23.7017 32.6395V32.64ZM40.142 30.0477C41.0348 30.0477 41.838 29.825 42.5509 29.3782C43.2637 28.9246 43.8215 28.302 44.2249 27.5098C44.6282 26.7107 44.8295 25.8138 44.8295 24.8203C44.8295 23.8268 44.6282 22.9339 44.2249 22.1418C43.8215 21.3427 43.2637 20.7201 42.5509 20.2734C41.838 19.8197 41.0348 19.5929 40.142 19.5929C39.2491 19.5929 38.4425 19.8197 37.7227 20.2734C37.0098 20.7201 36.448 21.3427 36.0377 22.1418C35.6344 22.9345 35.433 23.8268 35.433 24.8203C35.433 25.8138 35.6344 26.7107 36.0377 27.5098C36.448 28.3026 37.0098 28.9246 37.7227 29.3782C38.4425 29.825 39.2491 30.0477 40.142 30.0477ZM40.131 32.64C38.6838 32.64 37.3697 32.301 36.1887 31.6245C35.0152 30.94 34.0894 30.0043 33.413 28.8164C32.7435 27.6215 32.4085 26.2889 32.4085 24.8197C32.4085 23.3506 32.7435 22.022 33.413 20.8341C34.09 19.6392 35.0152 18.7024 36.1887 18.0259C37.3697 17.3414 38.6838 17 40.131 17C41.5782 17 42.8998 17.3414 44.0733 18.0259C45.2543 18.7024 46.1795 19.6392 46.849 20.8341C47.5185 22.022 47.8535 23.3506 47.8535 24.8197C47.8535 26.2889 47.5185 27.6215 46.849 28.8164C46.1795 30.0043 45.2543 30.94 44.0733 31.6245C42.8998 32.301 41.5851 32.64 40.131 32.64Z" fill="white"/>
</g>
<defs>
<linearGradient id="paint0_linear_4372_12219" x1="63.6351" y1="54.0451" x2="39.318" y2="1.59593" gradientUnits="userSpaceOnUse">
<stop offset="0.24" stop-color="#00D886"/>
<stop offset="0.51" stop-color="#007DFE"/>
</linearGradient>
<linearGradient id="paint1_linear_4372_12219" x1="59.3792" y1="4.38051" x2="0.674325" y2="63.0854" gradientUnits="userSpaceOnUse">
<stop offset="0.27" stop-color="#007DFE"/>
<stop offset="0.7" stop-color="#D249FC"/>
</linearGradient>
<clipPath id="clip0_4372_12219">
<rect width="64" height="64" fill="white"/>
</clipPath>
</defs>
</svg>
